<svg width="600" height="400" viewBox="0 0 600 400" xmlns="http://www.w3.org/2000/svg" font-family="sans-serif">
    <defs>
        <style>
            .title { font-size: 24px; font-weight: bold; text-anchor: middle; fill: #2c3e50; }
            .card { fill: #ffffff; stroke: #bdc3c7; stroke-width: 1; rx: 10; }
            .card-title { font-size: 16px; font-weight: bold; text-anchor: middle; fill: #2980b9; }
            .icon { stroke: #3498db; stroke-width: 4; fill: none; }
        </style>
    </defs>

    <rect width="600" height="400" fill="#f4f6f7"/>
    <text x="300" y="40" class="title">ميادين الجمال</text>

    <!-- Nature -->
    <rect x="50" y="80" width="220" height="120" class="card"/>
    <text x="160" y="110" class="card-title">الطبيعة</text>
    <g transform="translate(135, 130) scale(0.5)">
        <path d="M 20 80 L 50 20 L 80 80 Z" class="icon"/>
    </g>

    <!-- Human -->
    <rect x="330" y="80" width="220" height="120" class="card"/>
    <text x="440" y="110" class="card-title">الإنسان</text>
    <g transform="translate(415, 130) scale(0.5)">
        <circle cx="50" cy="30" r="15" class="icon"/>
        <path d="M 25 80 C 25 50, 75 50, 75 80 Z" class="icon"/>
    </g>

    <!-- Art -->
    <rect x="50" y="230" width="220" height="120" class="card"/>
    <text x="160" y="260" class="card-title">الفن</text>
    <g transform="translate(135, 280) scale(0.5)">
        <path d="M 20 20 H 80 V 80 H 20 Z" class="icon"/>
        <circle cx="50" cy="50" r="10" class="icon"/>
    </g>

    <!-- Architecture -->
    <rect x="330" y="230" width="220" height="120" class="card"/>
    <text x="440" y="260" class="card-title">العمارة</text>
    <g transform="translate(415, 280) scale(0.5)">
        <path d="M 20 80 H 80 V 40 L 50 10 L 20 40 Z" class="icon"/>
    </g>
</svg>
