<svg xmlns="http://www.w3.org/2000/svg" width="800" height="600" viewBox="0 0 800 600">
  <rect width="100%" height="100%" fill="#eafaff"/>
  <g transform="translate(0, 50)">
    <text x="400" y="0" font-family="Arial, sans-serif" font-size="32" text-anchor="middle" fill="#333">Countries &amp; Nationalities</text>
    <text x="400" y="30" font-family="Arial, sans-serif" font-size="32" text-anchor="middle" fill="#333">الدول والجنسيات</text>

    <!-- World Map Icon -->
    <g transform="translate(50, 120) scale(0.8)">
        <path fill="#90d7f8" d="M400.1,212.9c-0.2,0-0.4,0-0.6,0c-0.2,0-0.4,0-0.6,0c-0.8,0-1.6,0-2.4,0c-1.6,0-3.2,0-4.8,0c-0.8,0-1.6,0-2.4,0c-0.2,0-0.4,0-0.6,0c-0.2,0-0.4,0-0.6,0c-1.2,0-2.3-0.1-3.5-0.1c-1.2-0.1-2.3-0.1-3.5-0.2c-1.2-0.1-2.4-0.2-3.6-0.4c-1.2-0.2-2.4-0.4-3.5-0.6c-1.1-0.2-2.2-0.5-3.3-0.8c-1.1-0.3-2.2-0.7-3.2-1.1c-1-0.4-2-0.9-3-1.4c-0.9-0.5-1.9-1-2.8-1.6c-0.9-0.6-1.8-1.2-2.6-1.9c-0.8-0.7-1.6-1.4-2.4-2.1c-0.8-0.8-1.5-1.6-2.2-2.5c-0.7-0.9-1.3-1.8-1.9-2.8c-0.6-1-1.1-2-1.6-3.1c-0.5-1.1-0.9-2.2-1.3-3.3c-0.4-1.1-0.7-2.2-1-3.4c-0.3-1.2-0.5-2.4-0.7-3.6c-0.2-1.2-0.3-2.4-0.4-3.6c-0.1-1.2-0.1-2.4-0.1-3.6c0-1.2,0.1-2.4,0.1-3.6c0.1-1.2,0.2-2.4,0.4-3.6c0.2-1.2,0.3-2.4,0.5-3.6c0.3-1.2,0.5-2.3,0.8-3.5c0.3-1.1,0.6-2.2,1-3.3c0.4-1.1,0.8-2.1,1.2-3.2c0.5-1,1-2,1.6-2.9c0.6-0.9,1.2-1.8,1.9-2.6c0.7-0.8,1.4-1.6,2.2-2.3c0.8-0.7,1.6-1.4,2.5-2c0.9-0.6,1.8-1.2,2.8-1.7c0.9-0.5,1.9-1,2.9-1.4c1-0.4,2-0.8,3.1-1.1c1.1-0.3,2.2-0.6,3.3-0.8c1.1-0.2,2.3-0.4,3.4-0.6c1.2-0.1,2.3-0.2,3.5-0.3c1.2-0.1,2.4-0.1,3.6-0.1c0.6,0,1.2,0,1.8,0c0.6,0,1.2,0,1.8,0c1.2,0,2.4,0.1,3.6,0.1c1.2,0.1,2.3,0.1,3.5,0.2c1.2,0.1,2.4,0.2,3.6,0.4c1.2,0.2,2.4,0.4,3.5,0.6c1.1,0.2,2.2,0.5,3.3,0.8c1.1,0.3,2.2,0.7,3.2,1.1c1,0.4,2,0.9,3,1.4c0.9,0.5,1.9,1,2.8,1.6c0.9,0.6,1.8,1.2,2.6,1.9c0.8,0.7,1.6,1.4,2.4,2.1c0.8,0.8,1.5,1.6,2.2,2.5c0.7,0.9,1.3,1.8,1.9,2.8c0.6,1,1.1,2,1.6,3.1c0.5,1.1,0.9,2.2,1.3,3.3c0.4,1.1,0.7,2.2,1,3.4c0.3,1.2,0.5,2.4,0.7,3.6c0.2,1.2,0.3,2.4,0.4,3.6c0.1,1.2,0.1,2.4,0.1,3.6c0,1.2-0.1,2.4-0.1,3.6c-0.1,1.2-0.2,2.4-0.4,3.6c-0.2,1.2-0.3,2.4-0.5,3.6c-0.3,1.2-0.5,2.3-0.8,3.5c-0.3,1.1-0.6,2.2-1,3.3c-0.4,1.1-0.8,2.1-1.2,3.2c-0.5,1-1,2-1.6,2.9c-0.6,0.9-1.2,1.8-1.9,2.6c-0.7,0.8-1.4,1.6-2.2,2.3c-0.8,0.7-1.6,1.4-2.5,2c-0.9,0.6-1.8,1.2-2.8,1.7c-0.9,0.5-1.9,1-2.9,1.4c-1,0.4-2,0.8-3.1,1.1c-1.1,0.3-2.2,0.6-3.3,0.8c-1.1,0.2-2.3,0.4-3.4,0.6c-1.2,0.1-2.3,0.2-3.5,0.3c-1.2,0.1-2.4,0.1-3.6,0.1C401.3,212.9,400.7,212.9,400.1,212.9z"/>
    </g>

    <!-- Table -->
    <g transform="translate(300, 120)">
      <rect x="0" y="0" width="450" height="400" rx="10" fill="#fff" stroke="#ccc"/>
      <!-- Header -->
      <rect x="0" y="0" width="450" height="50" fill="#007bff" rx="10" ry="10"/>
      <text x="112.5" y="35" font-family="Arial, sans-serif" font-size="20" text-anchor="middle" fill="#fff">Country (الدولة)</text>
      <text x="337.5" y="35" font-family="Arial, sans-serif" font-size="20" text-anchor="middle" fill="#fff">Nationality (الجنسية)</text>
      
      <!-- Rows -->
      <g class="table-row" transform="translate(0, 50)">
        <text x="112.5" y="30" font-size="18" text-anchor="middle">Egypt</text>
        <text x="337.5" y="30" font-size="18" text-anchor="middle">Egyptian</text>
      </g>
      <path d="M 10 85 H 440" stroke="#eee"/>
      <g class="table-row" transform="translate(0, 85)">
        <text x="112.5" y="30" font-size="18" text-anchor="middle">USA</text>
        <text x="337.5" y="30" font-size="18" text-anchor="middle">American</text>
      </g>
      <path d="M 10 120 H 440" stroke="#eee"/>
      <g class="table-row" transform="translate(0, 120)">
        <text x="112.5" y="30" font-size="18" text-anchor="middle">Japan</text>
        <text x="337.5" y="30" font-size="18" text-anchor="middle">Japanese</text>
      </g>
      <path d="M 10 155 H 440" stroke="#eee"/>
      <g class="table-row" transform="translate(0, 155)">
        <text x="112.5" y="30" font-size="18" text-anchor="middle">Brazil</text>
        <text x="337.5" y="30" font-size="18" text-anchor="middle">Brazilian</text>
      </g>
      <path d="M 10 190 H 440" stroke="#eee"/>
      <g class="table-row" transform="translate(0, 190)">
        <text x="112.5" y="30" font-size="18" text-anchor="middle">Italy</text>
        <text x="337.5" y="30" font-size="18" text-anchor="middle">Italian</text>
      </g>
      <path d="M 10 225 H 440" stroke="#eee"/>
       <g class="table-row" transform="translate(0, 225)">
        <text x="112.5" y="30" font-size="18" text-anchor="middle">China</text>
        <text x="337.5" y="30" font-size="18" text-anchor="middle">Chinese</text>
      </g>
    </g>
  </g>
</svg>
