<svg width="700" height="400" viewBox="0 0 700 400" xmlns="http://www.w3.org/2000/svg" font-family="sans-serif">
    <defs>
        <style>
            .title { font-size: 24px; font-weight: bold; text-anchor: middle; fill: #2c3e50; }
            .card { fill: #ffffff; stroke: #bdc3c7; stroke-width: 1; rx: 10; }
            .card-title { font-size: 18px; font-weight: bold; text-anchor: middle; fill: #2980b9; }
            .icon { stroke: #3498db; stroke-width: 5; fill: none; }
        </style>
    </defs>

    <rect width="700" height="400" fill="#f4f6f7"/>
    <text x="350" y="40" class="title">أثر العقيدة على المجتمع</text>

    <!-- Brotherhood -->
    <rect x="50" y="100" width="180" height="200" class="card"/>
    <text x="140" y="140" class="card-title">الأخوة الإسلامية</text>
    <g transform="translate(90, 170) scale(0.7)">
        <circle cx="35" cy="50" r="15" class="icon"/>
        <circle cx="65" cy="50" r="15" class="icon"/>
        <path d="M 35 65 C 45 75, 55 75, 65 65" class="icon"/>
    </g>

    <!-- Discipline -->
    <rect x="260" y="100" width="180" height="200" class="card"/>
    <text x="350" y="140" class="card-title">الانضباط السلوكي</text>
    <g transform="translate(300, 170) scale(0.7)">
        <path d="M 20 20 H 80 V 80 H 20 Z" class="icon"/>
        <path d="M 30 40 L 45 55 L 70 30" class="icon"/>
    </g>

    <!-- Solidarity -->
    <rect x="470" y="100" width="180" height="200" class="card"/>
    <text x="560" y="140" class="card-title">التكافل والعدالة</text>
    <g transform="translate(510, 170) scale(0.7)">
        <path d="M 20 80 H 80" class="icon"/>
        <path d="M 30 60 L 50 40 L 70 60" class="icon"/>
    </g>

</svg>
