<svg width="800" height="500" viewBox="0 0 800 500" xmlns="http://www.w3.org/2000/svg" font-family="sans-serif">
    <defs>
        <style>
            .title { font-size: 24px; font-weight: bold; text-anchor: middle; fill: #2c3e50; }
            .card { fill: #ffffff; stroke: #bdc3c7; stroke-width: 1; rx: 10; }
            .card-title { font-size: 14px; font-weight: bold; text-anchor: middle; fill: #2980b9; }
            .icon { stroke: #3498db; stroke-width: 5; fill: none; stroke-linecap: round; stroke-linejoin: round; }
        </style>
    </defs>

    <rect width="800" height="500" fill="#f4f6f7"/>
    <text x="400" y="40" class="title">خصائص العقيدة الإسلامية</text>

    <!-- Fixed -->
    <rect x="50" y="80" width="130" height="180" class="card"/>
    <text x="115" y="110" class="card-title">ثابتة</text>
    <g transform="translate(75, 130) scale(0.6)">
        <path d="M 20 50 H 80" class="icon"/>
    </g>

    <!-- Innate -->
    <rect x="200" y="80" width="130" height="180" class="card"/>
    <text x="265" y="110" class="card-title">فطرية</text>
    <g transform="translate(225, 130) scale(0.6)">
        <path d="M 50 20 C 20 50, 80 50, 50 80 C 20 50, 80 50, 50 20" class="icon"/>
    </g>

    <!-- Proven -->
    <rect x="350" y="80" width="130" height="180" class="card"/>
    <text x="415" y="110" class="card-title">مبرهنة</text>
    <g transform="translate(375, 130) scale(0.6)">
        <path d="M 20 80 L 50 20 L 80 80" class="icon"/>
        <path d="M 35 60 H 65" class="icon"/>
    </g>

    <!-- Clear -->
    <rect x="500" y="80" width="130" height="180" class="card"/>
    <text x="565" y="110" class="card-title">واضحة</text>
    <g transform="translate(525, 130) scale(0.6)">
        <circle cx="50" cy="50" r="30" class="icon"/>
    </g>

    <!-- Moderate -->
    <rect x="650" y="80" width="130" height="180" class="card"/>
    <text x="715" y="110" class="card-title">وسطية</text>
    <g transform="translate(675, 130) scale(0.6)">
        <path d="M 20 50 H 80" class="icon"/>
        <path d="M 50 20 V 80" class="icon"/>
    </g>

</svg>
