<svg width="600" height="400" viewBox="0 0 600 400" xmlns="http://www.w3.org/2000/svg" font-family="sans-serif">
    <defs>
        <style>
            .title { font-size: 24px; font-weight: bold; text-anchor: middle; fill: #2c3e50; }
            .card { fill: #ffffff; stroke: #bdc3c7; stroke-width: 1; rx: 10; }
            .card-title { font-size: 16px; font-weight: bold; text-anchor: middle; fill: #2980b9; }
            .icon { stroke: #3498db; stroke-width: 4; fill: none; }
        </style>
    </defs>

    <rect width="600" height="400" fill="#f4f6f7"/>
    <text x="300" y="40" class="title">مصادر جمع بيانات الأداء</text>

    <!-- Source 1: Manager -->
    <rect x="50" y="80" width="220" height="120" class="card"/>
    <text x="160" y="110" class="card-title">المدير المباشر</text>
    <g transform="translate(135, 130) scale(0.5)">
        <circle cx="50" cy="30" r="15" class="icon"/>
        <path d="M 25 80 C 25 50, 75 50, 75 80 Z" class="icon"/>
    </g>

    <!-- Source 2: Colleagues -->
    <rect x="330" y="80" width="220" height="120" class="card"/>
    <text x="440" y="110" class="card-title">الزملاء</text>
    <g transform="translate(415, 130) scale(0.5)">
        <circle cx="30" cy="30" r="10" class="icon"/>
        <path d="M 15 60 C 15 40, 45 40, 45 60 Z" class="icon"/>
        <circle cx="70" cy="30" r="10" class="icon"/>
        <path d="M 55 60 C 55 40, 85 40, 85 60 Z" class="icon"/>
    </g>

    <!-- Source 3: Customers -->
    <rect x="50" y="230" width="220" height="120" class="card"/>
    <text x="160" y="260" class="card-title">العملاء</text>
    <g transform="translate(135, 280) scale(0.5)">
        <path d="M 20 80 H 80" class="icon"/>
        <path d="M 30 60 C 40 70, 60 70, 70 60" class="icon"/>
        <circle cx="35" cy="45" r="5" class="icon"/>
        <circle cx="65" cy="45" r="5" class="icon"/>
    </g>

    <!-- Source 4: Self -->
    <rect x="330" y="230" width="220" height="120" class="card"/>
    <text x="440" y="260" class="card-title">الموظف نفسه</text>
    <g transform="translate(415, 280) scale(0.5)">
        <circle cx="50" cy="50" r="40" class="icon"/>
        <path d="M 30 60 H 70" class="icon"/>
    </g>
</svg>
