<svg width="600" height="400" viewBox="0 0 600 400" xmlns="http://www.w3.org/2000/svg" font-family="sans-serif">
    <defs>
        <style>
            .title { font-size: 24px; font-weight: bold; text-anchor: middle; fill: #2c3e50; }
            .card { fill: #ffffff; stroke: #bdc3c7; stroke-width: 1; rx: 10; }
            .card-title { font-size: 16px; font-weight: bold; text-anchor: middle; fill: #2980b9; }
            .icon { stroke: #3498db; stroke-width: 4; fill: none; }
        </style>
    </defs>

    <rect width="600" height="400" fill="#f4f6f7"/>
    <text x="300" y="40" class="title">أركان الإيمان بالقدر</text>

    <!-- Knowledge -->
    <rect x="50" y="80" width="220" height="120" class="card"/>
    <text x="160" y="110" class="card-title">العلم السابق</text>
    <g transform="translate(135, 130) scale(0.5)">
        <circle cx="50" cy="50" r="40" class="icon"/>
        <path d="M 50 30 V 50 H 70" class="icon"/>
    </g>

    <!-- Writing -->
    <rect x="330" y="80" width="220" height="120" class="card"/>
    <text x="440" y="110" class="card-title">الكتابة</text>
    <g transform="translate(415, 130) scale(0.5)">
        <path d="M 20 10 H 80 V 90 H 20 Z" class="icon"/>
        <path d="M 30 30 L 70 70 M 70 30 L 30 70" class="icon"/>
    </g>

    <!-- Will -->
    <rect x="50" y="230" width="220" height="120" class="card"/>
    <text x="160" y="260" class="card-title">المشيئة</text>
    <g transform="translate(135, 280) scale(0.5)">
        <path d="M 20 50 C 40 20, 60 20, 80 50 C 60 80, 40 80, 20 50 Z" class="icon"/>
    </g>

    <!-- Creation -->
    <rect x="330" y="230" width="220" height="120" class="card"/>
    <text x="440" y="260" class="card-title">الخلق</text>
    <g transform="translate(415, 280) scale(0.5)">
        <path d="M 50 10 L 50 90 M 10 50 H 90" class="icon"/>
    </g>
</svg>
