<svg width="800" height="500" viewBox="0 0 800 500" xmlns="http://www.w3.org/2000/svg" font-family="sans-serif">
    <defs>
        <style>
            .title { font-size: 24px; font-weight: bold; text-anchor: middle; fill: #2c3e50; }
            .card { fill: #ffffff; stroke: #bdc3c7; stroke-width: 1; rx: 10; }
            .card-title { font-size: 14px; font-weight: bold; text-anchor: middle; fill: #2980b9; }
            .icon { stroke: #3498db; stroke-width: 5; fill: none; stroke-linecap: round; stroke-linejoin: round; }
        </style>
    </defs>

    <rect width="800" height="500" fill="#f4f6f7"/>
    <text x="400" y="40" class="title">خصائص السلوك الإنساني</text>

    <!-- Predictable -->
    <rect x="50" y="80" width="130" height="180" class="card"/>
    <text x="115" y="110" class="card-title">يمكن التنبؤ به</text>
    <g transform="translate(75, 130) scale(0.6)">
        <path d="M 20 50 C 40 20, 60 20, 80 50" class="icon"/>
    </g>

    <!-- Caused -->
    <rect x="200" y="80" width="130" height="180" class="card"/>
    <text x="265" y="110" class="card-title">سلوك مسبب</text>
    <g transform="translate(225, 130) scale(0.6)">
        <path d="M 50 20 V 80" class="icon"/>
        <path d="M 30 40 L 50 20 L 70 40" class="icon"/>
    </g>

    <!-- Purposeful -->
    <rect x="350" y="80" width="130" height="180" class="card"/>
    <text x="415" y="110" class="card-title">سلوك هادف</text>
    <g transform="translate(375, 130) scale(0.6)">
        <circle cx="50" cy="50" r="30" class="icon"/>
        <path d="M 50 50 L 70 30" class="icon"/>
    </g>

    <!-- Diverse -->
    <rect x="500" y="80" width="130" height="180" class="card"/>
    <text x="565" y="110" class="card-title">متنوع ومرن</text>
    <g transform="translate(525, 130) scale(0.6)">
        <path d="M 20 20 L 80 80 M 80 20 L 20 80" class="icon"/>
    </g>

    <!-- Motivated -->
    <rect x="650" y="80" width="130" height="180" class="card"/>
    <text x="715" y="110" class="card-title">تدفعه الدوافع</text>
    <g transform="translate(675, 130) scale(0.6)">
        <path d="M 20 80 L 50 20 L 80 80" class="icon"/>
    </g>

</svg>