<svg width="800" height="500" viewBox="0 0 800 500" xmlns="http://www.w3.org/2000/svg" font-family="sans-serif">
    <defs>
        <style>
            .title { font-size: 24px; font-weight: bold; text-anchor: middle; fill: #2c3e50; }
            .card { fill: #ffffff; stroke: #bdc3c7; stroke-width: 1; rx: 10; }
            .card-title { font-size: 14px; font-weight: bold; text-anchor: middle; fill: #2980b9; }
            .icon { stroke: #3498db; stroke-width: 5; fill: none; stroke-linecap: round; stroke-linejoin: round; }
        </style>
    </defs>

    <rect width="800" height="500" fill="#f4f6f7"/>
    <text x="400" y="40" class="title">صور الإحسان</text>

    <!-- Worship -->
    <rect x="50" y="80" width="130" height="180" class="card"/>
    <text x="115" y="110" class="card-title">في العبادة</text>
    <g transform="translate(75, 130) scale(0.6)">
        <path d="M 50 10 L 20 40 H 80 Z" class="icon"/>
    </g>

    <!-- Parents -->
    <rect x="200" y="80" width="130" height="180" class="card"/>
    <text x="265" y="110" class="card-title">في بر الوالدين</text>
    <g transform="translate(225, 130) scale(0.6)">
        <circle cx="50" cy="30" r="10" class="icon"/>
        <path d="M 30 80 C 30 50, 70 50, 70 80 Z" class="icon"/>
    </g>

    <!-- Neighbor -->
    <rect x="350" y="80" width="130" height="180" class="card"/>
    <text x="415" y="110" class="card-title">في الجار</text>
    <g transform="translate(375, 130) scale(0.6)">
        <path d="M 20 80 H 80 V 40 H 20 Z" class="icon"/>
    </g>

    <!-- Speech -->
    <rect x="500" y="80" width="130" height="180" class="card"/>
    <text x="565" y="110" class="card-title">في الكلام</text>
    <g transform="translate(525, 130) scale(0.6)">
        <path d="M 20 20 H 80 V 60 H 50 L 20 40 Z" class="icon"/>
    </g>

    <!-- Animals -->
    <rect x="650" y="80" width="130" height="180" class="card"/>
    <text x="715" y="110" class="card-title">في الحيوان</text>
    <g transform="translate(675, 130) scale(0.6)">
        <path d="M 20 80 C 40 60, 60 60, 80 80" class="icon"/>
        <path d="M 30 50 L 20 40 M 70 50 L 80 40" class="icon"/>
    </g>

</svg>
