<svg width="700" height="400" viewBox="0 0 700 400" xmlns="http://www.w3.org/2000/svg" font-family="sans-serif">
    <defs>
        <style>
            .title { font-size: 24px; font-weight: bold; text-anchor: middle; fill: #2c3e50; }
            .card { fill: #ffffff; stroke: #bdc3c7; stroke-width: 1; rx: 10; }
            .card-title { font-size: 18px; font-weight: bold; text-anchor: middle; fill: #2980b9; }
            .icon { stroke: #3498db; stroke-width: 5; fill: none; }
        </style>
    </defs>

    <rect width="700" height="400" fill="#f4f6f7"/>
    <text x="350" y="40" class="title">نظريات القيادة</text>

    <!-- Theory 1: Trait -->
    <rect x="50" y="100" width="180" height="200" class="card"/>
    <text x="140" y="140" class="card-title">نظرية السمات</text>
    <g transform="translate(90, 170) scale(0.7)">
        <circle cx="50" cy="50" r="40" class="icon"/>
        <path d="M 50 30 L 50 70 M 30 50 H 70" class="icon" stroke-width="8"/>
    </g>
    <text x="140" y="280" class="card-title">(القائد يولد)</text>

    <!-- Theory 2: Behavioral -->
    <rect x="260" y="100" width="180" height="200" class="card"/>
    <text x="350" y="140" class="card-title">النظرية السلوكية</text>
    <g transform="translate(300, 170) scale(0.7)">
        <path d="M 20 20 H 80 V 80 H 20 Z" class="icon"/>
        <path d="M 30 40 H 70 M 30 60 H 50" class="icon" stroke-width="4"/>
    </g>
    <text x="350" y="280" class="card-title">(الأسلوب هو الفيصل)</text>

    <!-- Theory 3: Situational -->
    <rect x="470" y="100" width="180" height="200" class="card"/>
    <text x="560" y="140" class="card-title">النظرية الموقفية</text>
    <g transform="translate(510, 170) scale(0.7)">
        <path d="M 50 20 L 80 80 L 20 80 Z" class="icon"/>
        <path d="M 50 80 V 90" class="icon"/>
    </g>
    <text x="560" y="280" class="card-title">(لكل موقف قائد)</text>

</svg>
