<svg width="600" height="400" viewBox="0 0 600 400" xmlns="http://www.w3.org/2000/svg" font-family="sans-serif">
    <defs>
        <style>
            .title { font-size: 24px; font-weight: bold; text-anchor: middle; fill: #2c3e50; }
            .card { fill: #ffffff; stroke: #bdc3c7; stroke-width: 1; rx: 10; }
            .card-title { font-size: 16px; font-weight: bold; text-anchor: middle; fill: #2980b9; }
            .icon { stroke: #3498db; stroke-width: 4; fill: none; }
        </style>
    </defs>

    <rect width="600" height="400" fill="#f4f6f7"/>
    <text x="300" y="40" class="title">الأهداف العامة للحقيبة</text>

    <!-- Objective 1: Protection -->
    <rect x="50" y="80" width="150" height="150" class="card"/>
    <text x="125" y="110" class="card-title">الحماية الفكرية</text>
    <g transform="translate(85, 130) scale(0.6)">
        <path d="M 20 40 H 80 V 80 C 80 90, 20 90, 20 80 Z" class="icon"/>
        <path d="M 50 40 V 20" class="icon"/>
    </g>

    <!-- Objective 2: Awareness -->
    <rect x="225" y="80" width="150" height="150" class="card"/>
    <text x="300" y="110" class="card-title">رفع الوعي</text>
    <g transform="translate(265, 130) scale(0.6)">
        <path d="M 50 20 L 50 80" class="icon"/>
        <circle cx="50" cy="20" r="5" fill="#3498db"/>
    </g>

    <!-- Objective 3: Correct Perception -->
    <rect x="400" y="80" width="150" height="150" class="card"/>
    <text x="475" y="110" class="card-title">بناء التصورات</text>
    <g transform="translate(440, 130) scale(0.6)">
        <path d="M 20 80 L 50 20 L 80 80 Z" class="icon"/>
        <path d="M 35 60 H 65" class="icon"/>
    </g>
</svg>
