<svg width="700" height="400" viewBox="0 0 700 400" xmlns="http://www.w3.org/2000/svg" font-family="sans-serif">
    <defs>
        <style>
            .title { font-size: 24px; font-weight: bold; text-anchor: middle; fill: #2c3e50; }
            .card { fill: #ffffff; stroke: #bdc3c7; stroke-width: 1; rx: 10; }
            .card-title { font-size: 18px; font-weight: bold; text-anchor: middle; fill: #2980b9; }
            .icon { stroke: #3498db; stroke-width: 5; fill: none; }
        </style>
    </defs>

    <rect width="700" height="400" fill="#f4f6f7"/>
    <text x="350" y="40" class="title">فوائد السلوك التنظيمي</text>

    <!-- Human Resources -->
    <rect x="50" y="100" width="180" height="200" class="card"/>
    <text x="140" y="140" class="card-title">الموارد البشرية</text>
    <g transform="translate(90, 170) scale(0.7)">
        <circle cx="50" cy="30" r="15" class="icon"/>
        <path d="M 25 80 C 25 50, 75 50, 75 80 Z" class="icon"/>
    </g>

    <!-- Development -->
    <rect x="260" y="100" width="180" height="200" class="card"/>
    <text x="350" y="140" class="card-title">تنمية الموارد</text>
    <g transform="translate(300, 170) scale(0.7)">
        <path d="M 20 80 L 50 20 L 80 80" class="icon"/>
    </g>

    <!-- Understanding -->
    <rect x="470" y="100" width="180" height="200" class="card"/>
    <text x="560" y="140" class="card-title">فهم الطبيعة البشرية</text>
    <g transform="translate(510, 170) scale(0.7)">
        <path d="M 20 50 C 40 20, 60 20, 80 50 C 60 80, 40 80, 20 50 Z" class="icon"/>
    </g>

</svg>
