<svg width="600" height="400" viewBox="0 0 600 400" xmlns="http://www.w3.org/2000/svg" font-family="sans-serif">
    <defs>
        <style>
            .title { font-size: 24px; font-weight: bold; text-anchor: middle; fill: #2c3e50; }
            .card { fill: #ffffff; stroke: #bdc3c7; stroke-width: 1; rx: 10; }
            .card-title { font-size: 16px; font-weight: bold; text-anchor: middle; fill: #2980b9; }
            .icon { stroke: #3498db; stroke-width: 4; fill: none; }
        </style>
    </defs>

    <rect width="600" height="400" fill="#f4f6f7"/>
    <text x="300" y="40" class="title">أهداف السلوك التنظيمي</text>

    <!-- Prediction -->
    <rect x="50" y="80" width="220" height="120" class="card"/>
    <text x="160" y="110" class="card-title">التنبؤ بالسلوك</text>
    <g transform="translate(135, 130) scale(0.5)">
        <path d="M 20 50 C 40 20, 60 20, 80 50" class="icon"/>
    </g>

    <!-- Interpretation -->
    <rect x="330" y="80" width="220" height="120" class="card"/>
    <text x="440" y="110" class="card-title">تفسير السلوك</text>
    <g transform="translate(415, 130) scale(0.5)">
        <text x="50" y="60" font-size="40" text-anchor="middle" fill="#3498db">?</text>
    </g>

    <!-- Control -->
    <rect x="50" y="230" width="220" height="120" class="card"/>
    <text x="160" y="260" class="card-title">التحكم وتوجيه السلوك</text>
    <g transform="translate(135, 280) scale(0.5)">
        <path d="M 20 50 H 80" class="icon"/>
        <path d="M 50 20 V 80" class="icon"/>
    </g>

    <!-- Development -->
    <rect x="330" y="230" width="220" height="120" class="card"/>
    <text x="440" y="260" class="card-title">وضع استراتيجيات للتنمية</text>
    <g transform="translate(415, 280) scale(0.5)">
        <path d="M 20 80 L 50 20 L 80 80" class="icon"/>
    </g>
</svg>
