<svg width="600" height="400" viewBox="0 0 600 400" xmlns="http://www.w3.org/2000/svg" font-family="sans-serif">
    <defs>
        <style>
            .title { font-size: 24px; font-weight: bold; text-anchor: middle; fill: #2c3e50; }
            .card { fill: #ffffff; stroke: #bdc3c7; stroke-width: 1; rx: 10; }
            .card-title { font-size: 16px; font-weight: bold; text-anchor: middle; fill: #2980b9; }
            .icon { stroke: #3498db; stroke-width: 4; fill: none; }
        </style>
    </defs>

    <rect width="600" height="400" fill="#f4f6f7"/>
    <text x="300" y="40" class="title">فوائد إدارة السلوك التنظيمي</text>

    <!-- Factors -->
    <rect x="50" y="80" width="220" height="120" class="card"/>
    <text x="160" y="110" class="card-title">معرفة العوامل المؤثرة</text>
    <g transform="translate(135, 130) scale(0.5)">
        <path d="M 20 80 L 50 20 L 80 80" class="icon"/>
    </g>

    <!-- Differences -->
    <rect x="330" y="80" width="220" height="120" class="card"/>
    <text x="440" y="110" class="card-title">فهم الفروق الفردية</text>
    <g transform="translate(415, 130) scale(0.5)">
        <circle cx="35" cy="50" r="15" class="icon"/>
        <circle cx="65" cy="50" r="15" class="icon" stroke-dasharray="5,5"/>
    </g>

    <!-- Prediction -->
    <rect x="50" y="230" width="220" height="120" class="card"/>
    <text x="160" y="260" class="card-title">التنبؤ بالسلوك</text>
    <g transform="translate(135, 280) scale(0.5)">
        <path d="M 20 50 C 40 20, 60 20, 80 50" class="icon"/>
    </g>

    <!-- Design -->
    <rect x="330" y="230" width="220" height="120" class="card"/>
    <text x="440" y="260" class="card-title">تصميم أنظمة فعّالة</text>
    <g transform="translate(415, 280) scale(0.5)">
        <path d="M 20 20 H 80 V 80 H 20 Z" class="icon"/>
        <path d="M 50 20 V 80 M 20 50 H 80" class="icon" stroke-dasharray="5,5"/>
    </g>
</svg>
