<svg width="600" height="400" viewBox="0 0 600 400" xmlns="http://www.w3.org/2000/svg" font-family="sans-serif">
    <defs>
        <style>
            .title { font-size: 24px; font-weight: bold; text-anchor: middle; fill: #2c3e50; }
            .card { fill: #ffffff; stroke: #bdc3c7; stroke-width: 1; rx: 10; }
            .card-title { font-size: 16px; font-weight: bold; text-anchor: middle; fill: #c0392b; }
            .icon { stroke: #e74c3c; stroke-width: 4; fill: none; }
        </style>
    </defs>

    <rect width="600" height="400" fill="#f9e7e7"/>
    <text x="300" y="40" class="title">وسائل الاستشراق</text>

    <!-- Books -->
    <rect x="50" y="80" width="220" height="120" class="card"/>
    <text x="160" y="110" class="card-title">تأليف الكتب</text>
    <g transform="translate(135, 130) scale(0.5)">
        <path d="M 20 10 H 80 V 90 H 20 Z" class="icon"/>
    </g>

    <!-- Magazines -->
    <rect x="330" y="80" width="220" height="120" class="card"/>
    <text x="440" y="110" class="card-title">إصدار المجلات</text>
    <g transform="translate(415, 130) scale(0.5)">
        <rect x="20" y="20" width="60" height="60" class="icon"/>
    </g>

    <!-- Universities -->
    <rect x="50" y="230" width="220" height="120" class="card"/>
    <text x="160" y="260" class="card-title">إنشاء الجامعات</text>
    <g transform="translate(135, 280) scale(0.5)">
        <path d="M 20 80 H 80 V 40 L 50 10 L 20 40 Z" class="icon"/>
    </g>

    <!-- Translations -->
    <rect x="330" y="230" width="220" height="120" class="card"/>
    <text x="440" y="260" class="card-title">الترجمات المغلوطة</text>
    <g transform="translate(415, 280) scale(0.5)">
        <path d="M 20 50 H 80" class="icon"/>
        <path d="M 50 20 V 80" class="icon"/>
    </g>
</svg>
