<svg width="600" height="400" viewBox="0 0 600 400" xmlns="http://www.w3.org/2000/svg" font-family="sans-serif">
    <defs>
        <style>
            .title { font-size: 24px; font-weight: bold; text-anchor: middle; fill: #2c3e50; }
            .card { fill: #ffffff; stroke: #bdc3c7; stroke-width: 1; rx: 10; }
            .card-title { font-size: 16px; font-weight: bold; text-anchor: middle; fill: #2980b9; }
            .icon { stroke: #3498db; stroke-width: 4; fill: none; }
        </style>
    </defs>

    <rect width="600" height="400" fill="#f4f6f7"/>
    <text x="300" y="40" class="title">أهمية إدارة الأداء</text>

    <!-- Card 1: Efficiency -->
    <rect x="50" y="80" width="220" height="120" class="card"/>
    <text x="160" y="110" class="card-title">رفع كفاءة العمل</text>
    <g transform="translate(135, 130) scale(0.5)">
        <path d="M 20 80 L 50 20 L 80 80" class="icon"/>
        <path d="M 35 60 H 65" class="icon"/>
    </g>

    <!-- Card 2: Productivity -->
    <rect x="330" y="80" width="220" height="120" class="card"/>
    <text x="440" y="110" class="card-title">تحسين الإنتاجية</text>
    <g transform="translate(415, 130) scale(0.5)">
        <path d="M 20 70 L 40 50 L 60 70" class="icon"/>
        <path d="M 40 50 V 30" class="icon"/>
        <path d="M 60 70 L 80 50 L 80 30" class="icon"/>
    </g>

    <!-- Card 3: Goals -->
    <rect x="50" y="230" width="220" height="120" class="card"/>
    <text x="160" y="260" class="card-title">تحقيق الأهداف الاستراتيجية</text>
    <g transform="translate(135, 280) scale(0.5)">
        <circle cx="50" cy="50" r="40" class="icon"/>
        <path d="M 50 50 L 75 25 M 75 25 L 65 25 M 75 25 L 75 35" class="icon" stroke-width="6"/>
    </g>

    <!-- Card 4: Development -->
    <rect x="330" y="230" width="220" height="120" class="card"/>
    <text x="440" y="260" class="card-title">تطوير الموظفين</text>
    <g transform="translate(415, 280) scale(0.5)">
        <circle cx="50" cy="30" r="15" class="icon"/>
        <path d="M 25 80 C 25 50, 75 50, 75 80 Z" class="icon"/>
    </g>
</svg>
