<svg width="600" height="400" viewBox="0 0 600 400" xmlns="http://www.w3.org/2000/svg" font-family="sans-serif">
    <defs>
        <style>
            .title { font-size: 24px; font-weight: bold; text-anchor: middle; fill: #2c3e50; }
            .email-icon { fill: #3498db; }
            .balance-beam { stroke: #34495e; stroke-width: 4; }
            .pan { fill: none; stroke: #34495e; stroke-width: 2; }
            .question-mark { font-size: 80px; font-weight: bold; fill: #bdc3c7; opacity: 0.5; text-anchor: middle; }
            .text-label { font-size: 14px; text-anchor: middle; fill: #34495e; }
            .pro-text { fill: #2ecc71; font-weight: bold; }
            .con-text { fill: #e74c3c; font-weight: bold; }
        </style>
    </defs>

    <rect width="600" height="400" fill="#f4f6f7"/>
    <text x="300" y="40" class="title">Practical Questions</text>

    <!-- Email Icon -->
    <g transform="translate(100, 100)">
        <rect x="0" y="0" width="100" height="70" rx="5" class="email-icon"/>
        <path d="M 0 0 L 50 35 L 100 0 Z" fill="white"/>
        <text x="50" y="90" class="text-label">Bug Report Email</text>
    </g>

    <!-- Balance Scale -->
    <g transform="translate(350, 150)">
        <line x1="0" y1="0" x2="150" y2="0" class="balance-beam"/>
        <polygon points="70,0 80,0 75,20" fill="#34495e"/>
        <path d="M 20 0 V 30 M 130 0 V 30" class="pan"/>
        <path d="M 0 30 C 0 50, 40 50, 40 30" class="pan"/>
        <path d="M 110 30 C 110 50, 150 50, 150 30" class="pan"/>
        <text x="20" y="45" class="pro-text">Pros</text>
        <text x="130" y="45" class="con-text">Cons</text>
        <text x="75" y="80" class="text-label">Benefits/Drawbacks</text>
    </g>

    <text x="300" y="280" class="question-mark">?</text>
</svg>