<svg viewBox="0 0 200 150" xmlns="http://www.w3.org/2000/svg">
    <style>
        .arrow { stroke: #9CA3AF; stroke-width: 1.5; fill: none; marker-end: url(#arrowhead); }
        .box { fill: #F3F4F6; stroke: #D1D5DB; stroke-width: 1; rx: 5; }
        .text { font-size: 8px; text-anchor: middle; font-family: sans-serif; }
    </style>
    <defs>
        <marker id="arrowhead" viewBox="0 0 10 10" refX="5" refY="5" markerWidth="6" markerHeight="6" orient="auto-start-reverse">
            <path d="M 0 0 L 10 5 L 0 10 z" fill="#9CA3AF" />
        </marker>
    </defs>
    
    <g>
        <rect x="10" y="20" width="50" height="20" class="box"/>
        <text x="35" y="33" class="text">اختيار عنوان</text>
    </g>
    <path d="M 60 30 L 80 30" class="arrow"/>
    
    <g>
        <rect x="80" y="20" width="50" height="20" class="box"/>
        <text x="105" y="33" class="text">صياغة الفرضيات</text>
    </g>
    <path d="M 130 30 L 150 30" class="arrow"/>
    
    <g>
        <rect x="150" y="20" width="50" height="20" class="box"/>
        <text x="175" y="33" class="text">الدراسات السابقة</text>
    </g>
    <path d="M 175 40 L 175 60" class="arrow"/>
    
    <g>
        <rect x="150" y="60" width="50" height="20" class="box"/>
        <text x="175" y="73" class="text">المنهج والأدوات</text>
    </g>
    <path d="M 150 70 L 130 70" class="arrow"/>
    
    <g>
        <rect x="80" y="60" width="50" height="20" class="box"/>
        <text x="105" y="73" class="text">جمع البيانات</text>
    </g>
    <path d="M 80 70 L 60 70" class="arrow"/>
    
    <g>
        <rect x="10" y="60" width="50" height="20" class="box"/>
        <text x="35" y="73" class="text">تحليل البيانات</text>
    </g>
    <path d="M 35 80 L 35 100" class="arrow"/>
    
    <g>
        <rect x="10" y="100" width="50" height="20" class="box"/>
        <text x="35" y="113" class="text">النتائج والتوصيات</text>
    </g>
</svg>
