<svg viewBox="0 0 200 150" xmlns="http://www.w3.org/2000/svg">
    <style>
        .box { fill: #F3F4F6; stroke: #D1D5DB; stroke-width: 1; }
        .header { fill: #E5E7EB; }
        .text { font-size: 10px; text-anchor: middle; font-family: sans-serif; }
    </style>
    
    <rect x="10" y="20" width="60" height="20" class="box header"/>
    <text x="40" y="33" class="text">المنهج</text>
    <rect x="70" y="20" width="60" height="20" class="box header"/>
    <text x="100" y="33" class="text">الوصف</text>
    <rect x="130" y="20" width="60" height="20" class="box header"/>
    <text x="160" y="33" class="text">تطبيق</text>
    
    <rect x="10" y="40" width="60" height="20" class="box"/>
    <text x="40" y="53" class="text">التجريبي</text>
    <rect x="70" y="40" width="60" height="20" class="box"/>
    <text x="100" y="53" class="text">التحكم في المتغيرات</text>
    <rect x="130" y="40" width="60" height="20" class="box"/>
    <text x="160" y="53" class="text">تجارب المختبر</text>
    
    <rect x="10" y="60" width="60" height="20" class="box"/>
    <text x="40" y="73" class="text">الوصفي</text>
    <rect x="70" y="60" width="60" height="20" class="box"/>
    <text x="100" y="73" class="text">وصف الظاهرة</text>
    <rect x="130" y="60" width="60" height="20" class="box"/>
    <text x="160" y="73" class="text">استبيانات</text>
    
    <rect x="10" y="80" width="60" height="20" class="box"/>
    <text x="40" y="93" class="text">التاريخي</text>
    <rect x="70" y="80" width="60" height="20" class="box"/>
    <text x="100" y="93" class="text">دراسة الوقائع السابقة</text>
    <rect x="130" y="80" width="60" height="20" class="box"/>
    <text x="160" y="93" class="text">تحليل الوثائق</text>
</svg>
