<svg width="600" height="400" viewBox="0 0 600 400" xmlns="http://www.w3.org/2000/svg" font-family="sans-serif">
    <defs>
        <style>
            .title { font-size: 24px; font-weight: bold; text-anchor: middle; fill: #2c3e50; }
            .card { fill: #ffffff; stroke: #bdc3c7; stroke-width: 1; rx: 10; }
            .card-title { font-size: 16px; font-weight: bold; text-anchor: middle; fill: #2980b9; }
            .icon { stroke: #3498db; stroke-width: 4; fill: none; }
        </style>
    </defs>

    <rect width="600" height="400" fill="#f4f6f7"/>
    <text x="300" y="40" class="title">إجراءات السلامة</text>

    <!-- Safety Instructions -->
    <rect x="50" y="80" width="220" height="120" class="card"/>
    <text x="160" y="110" class="card-title">الالتزام بالتعليمات</text>
    <g transform="translate(135, 130) scale(0.5)">
        <path d="M 20 20 H 80 V 80 H 20 Z" class="icon"/>
        <path d="M 30 40 L 45 55 L 70 30" class="icon"/>
    </g>

    <!-- Cleanliness -->
    <rect x="330" y="80" width="220" height="120" class="card"/>
    <text x="440" y="110" class="card-title">المحافظة على النظافة</text>
    <g transform="translate(415, 130) scale(0.5)">
        <path d="M 20 80 H 80" class="icon"/>
        <path d="M 30 60 L 50 40 L 70 60" class="icon"/>
    </g>

    <!-- Equipment -->
    <rect x="50" y="230" width="220" height="120" class="card"/>
    <text x="160" y="260" class="card-title">المحافظة على المحتويات</text>
    <g transform="translate(135, 280) scale(0.5)">
        <rect x="20" y="20" width="60" height="40" class="icon"/>
    </g>

    <!-- Closing -->
    <rect x="330" y="230" width="220" height="120" class="card"/>
    <text x="440" y="260" class="card-title">الإغلاق عند المغادرة</text>
    <g transform="translate(415, 280) scale(0.5)">
        <path d="M 20 20 L 80 80 M 80 20 L 20 80" class="icon"/>
    </g>
</svg>
