<svg width="600" height="400" viewBox="0 0 600 400" xmlns="http://www.w3.org/2000/svg" font-family="sans-serif">
    <defs>
        <style>
            .title { font-size: 24px; font-weight: bold; text-anchor: middle; fill: #2c3e50; }
            .card { fill: #ffffff; stroke: #bdc3c7; stroke-width: 1; rx: 10; }
            .card-title { font-size: 18px; font-weight: bold; text-anchor: middle; fill: #2980b9; }
            .icon { stroke: #3498db; stroke-width: 5; fill: none; }
        </style>
    </defs>

    <rect width="600" height="400" fill="#f4f6f7"/>
    <text x="300" y="40" class="title">مجالات الصدق</text>

    <!-- Tongue -->
    <rect x="50" y="100" width="150" height="200" class="card"/>
    <text x="125" y="140" class="card-title">صدق اللسان</text>
    <g transform="translate(85, 170) scale(0.7)">
        <path d="M 20 20 H 80 V 60 H 50 L 20 40 Z" class="icon"/>
    </g>

    <!-- Intention -->
    <rect x="225" y="100" width="150" height="200" class="card"/>
    <text x="300" y="140" class="card-title">صدق النية</text>
    <g transform="translate(265, 170) scale(0.7)">
        <path d="M 20 50 C 40 20, 60 20, 80 50 C 60 80, 40 80, 20 50 Z" class="icon"/>
    </g>

    <!-- Action -->
    <rect x="400" y="100" width="150" height="200" class="card"/>
    <text x="475" y="140" class="card-title">صدق العمل</text>
    <g transform="translate(440, 170) scale(0.7)">
        <path d="M 20 80 L 50 50 L 80 80" class="icon"/>
        <path d="M 50 50 V 20" class="icon"/>
    </g>

</svg>
