<svg width="600" height="400" viewBox="0 0 600 400" xmlns="http://www.w3.org/2000/svg" font-family="sans-serif">
    <defs>
        <style>
            .title { font-size: 24px; font-weight: bold; text-anchor: middle; fill: #2c3e50; }
            .card { fill: #ffffff; stroke: #bdc3c7; stroke-width: 1; rx: 10; }
            .card-title { font-size: 16px; font-weight: bold; text-anchor: middle; fill: #2980b9; }
            .icon { stroke: #3498db; stroke-width: 4; fill: none; }
        </style>
    </defs>

    <rect width="600" height="400" fill="#f4f6f7"/>
    <text x="300" y="40" class="title">وسائل تعزيز الصدق</text>

    <!-- God's Watchfulness -->
    <rect x="50" y="80" width="220" height="120" class="card"/>
    <text x="160" y="110" class="card-title">مراقبة الله</text>
    <g transform="translate(135, 130) scale(0.5)">
        <circle cx="50" cy="50" r="40" class="icon"/>
        <circle cx="50" cy="50" r="10" class="icon"/>
    </g>

    <!-- Good Company -->
    <rect x="330" y="80" width="220" height="120" class="card"/>
    <text x="440" y="110" class="card-title">صحبة الصادقين</text>
    <g transform="translate(415, 130) scale(0.5)">
        <circle cx="35" cy="50" r="15" class="icon"/>
        <circle cx="65" cy="50" r="15" class="icon"/>
    </g>

    <!-- Prayer -->
    <rect x="50" y="230" width="220" height="120" class="card"/>
    <text x="160" y="260" class="card-title">الدعاء بالصدق</text>
    <g transform="translate(135, 280) scale(0.5)">
        <path d="M 20 80 H 80" class="icon"/>
        <path d="M 30 60 C 40 40, 60 40, 70 60" class="icon"/>
    </g>

    <!-- Reminder -->
    <rect x="330" y="230" width="220" height="120" class="card"/>
    <text x="440" y="260" class="card-title">تذكير عذاب الكذب</text>
    <g transform="translate(415, 280) scale(0.5)">
        <path d="M 20 20 L 80 80 M 80 20 L 20 80" class="icon"/>
    </g>
</svg>
