<svg width="600" height="300" viewBox="0 0 600 300" xmlns="http://www.w3.org/2000/svg">
    <rect width="100%" height="100%" fill="#f0f0f0"/>

    <!-- Old Computer Monitor -->
    <rect x="150" y="50" width="300" height="180" rx="15" ry="15" fill="#607D8B" stroke="#455A64" stroke-width="3"/>
    <rect x="165" y="65" width="270" height="130" fill="#CFD8DC"/>
    <rect x="250" y="230" width="100" height="20" fill="#455A64"/>
    <rect x="280" y="250" width="40" height="30" fill="#455A64"/>

    <!-- Static Content (Newspaper/Magazine look) -->
    <rect x="180" y="75" width="240" height="110" fill="#FFFFFF" stroke="#9E9E9E" stroke-width="1"/>
    <line x1="190" y1="85" x2="390" y2="85" stroke="#757575" stroke-width="2"/>
    <line x1="190" y1="95" x2="380" y2="95" stroke="#BDBDBD" stroke-width="1"/>
    <line x1="190" y1="105" x2="390" y2="105" stroke="#BDBDBD" stroke-width="1"/>
    <line x1="190" y1="115" x2="380" y2="115" stroke="#BDBDBD" stroke-width="1"/>
    <line x1="190" y1="125" x2="390" y2="125" stroke="#BDBDBD" stroke-width="1"/>
    <line x1="190" y1="135" x2="380" y2="135" stroke="#BDBDBD" stroke-width="1"/>
    <line x1="190" y1="145" x2="390" y2="145" stroke="#BDBDBD" stroke-width="1"/>
    <line x1="190" y1="155" x2="380" y2="155" stroke="#BDBDBD" stroke-width="1"/>
    <line x1="190" y1="165" x2="390" y2="165" stroke="#BDBDBD" stroke-width="1"/>
    <line x1="190" y1="175" x2="380" y2="175" stroke="#BDBDBD" stroke-width="1"/>

    <text x="300" y="215" font-family="Arial" font-size="16" fill="#424242" text-anchor="middle">محتوى ساكن</text>

    <text x="300" y="20" font-family="Arial" font-size="14" fill="#757575" text-anchor="middle">قبل 1991</text>
</svg>