<svg width="600" height="400" viewBox="0 0 600 400" xmlns="http://www.w3.org/2000/svg" font-family="sans-serif">
    <defs>
        <style>
            .title { font-size: 24px; font-weight: bold; text-anchor: middle; fill: #2c3e50; }
            .card { fill: #ffffff; stroke: #bdc3c7; stroke-width: 1; rx: 10; }
            .card-title { font-size: 16px; font-weight: bold; text-anchor: middle; fill: #2980b9; }
            .icon { stroke: #3498db; stroke-width: 4; fill: none; }
        </style>
    </defs>

    <rect width="600" height="400" fill="#f4f6f7"/>
    <text x="300" y="40" class="title">أنواع التفكير</text>

    <!-- Creative -->
    <rect x="50" y="80" width="220" height="120" class="card"/>
    <text x="160" y="110" class="card-title">التفكير الإبداعي</text>
    <g transform="translate(135, 130) scale(0.5)">
        <path d="M 50 20 C 20 50, 80 50, 50 80" class="icon"/>
    </g>

    <!-- Critical -->
    <rect x="330" y="80" width="220" height="120" class="card"/>
    <text x="440" y="110" class="card-title">التفكير الناقد</text>
    <g transform="translate(415, 130) scale(0.5)">
        <path d="M 20 50 H 80" class="icon"/>
        <path d="M 50 20 V 80" class="icon"/>
    </g>

    <!-- Scientific -->
    <rect x="50" y="230" width="220" height="120" class="card"/>
    <text x="160" y="260" class="card-title">التفكير العلمي</text>
    <g transform="translate(135, 280) scale(0.5)">
        <path d="M 20 80 L 50 20 L 80 80 Z" class="icon"/>
    </g>

    <!-- Practical -->
    <rect x="330" y="230" width="220" height="120" class="card"/>
    <text x="440" y="260" class="card-title">التفكير العملي</text>
    <g transform="translate(415, 280) scale(0.5)">
        <circle cx="50" cy="50" r="30" class="icon"/>
    </g>
</svg>
