<svg width="600" height="400" viewBox="0 0 600 400" xmlns="http://www.w3.org/2000/svg" font-family="sans-serif">
    <defs>
        <style>
            .title { font-size: 24px; font-weight: bold; text-anchor: middle; fill: #2c3e50; }
            .card { fill: #ffffff; stroke: #bdc3c7; stroke-width: 1; rx: 10; }
            .card-title { font-size: 16px; font-weight: bold; text-anchor: middle; fill: #2980b9; }
            .icon { stroke: #3498db; stroke-width: 4; fill: none; }
        </style>
    </defs>

    <rect width="600" height="400" fill="#f4f6f7"/>
    <text x="300" y="40" class="title">خصائص عملية التفكير</text>

    <!-- Mental Activity -->
    <rect x="50" y="80" width="220" height="120" class="card"/>
    <text x="160" y="110" class="card-title">نشاط عقلي</text>
    <g transform="translate(135, 130) scale(0.5)">
        <path d="M 50 10 C 20 10, 20 50, 50 50 C 80 50, 80 10, 50 10" class="icon"/>
    </g>

    <!-- Cognitive Skills -->
    <rect x="330" y="80" width="220" height="120" class="card"/>
    <text x="440" y="110" class="card-title">مهارات معرفية</text>
    <g transform="translate(415, 130) scale(0.5)">
        <path d="M 20 80 L 50 20 L 80 80 Z" class="icon"/>
    </g>

    <!-- Internal/External Factors -->
    <rect x="50" y="230" width="220" height="120" class="card"/>
    <text x="160" y="260" class="card-title">عوامل داخلية وخارجية</text>
    <g transform="translate(135, 280) scale(0.5)">
        <path d="M 20 50 H 80" class="icon"/>
        <path d="M 50 20 V 80" class="icon"/>
    </g>

    <!-- Developable -->
    <rect x="330" y="230" width="220" height="120" class="card"/>
    <text x="440" y="260" class="card-title">يمكن تنميته</text>
    <g transform="translate(415, 280) scale(0.5)">
        <path d="M 20 70 L 40 50 L 60 70" class="icon"/>
        <path d="M 40 50 V 30" class="icon"/>
        <path d="M 60 70 L 80 50 L 80 30" class="icon"/>
    </g>
</svg>
