<svg xmlns="http://www.w3.org/2000/svg" width="800" height="600" viewBox="0 0 800 600">
  <rect width="100%" height="100%" fill="#f0f8ff"/>
  <g transform="translate(0, 50)">
    <text x="400" y="0" font-family="Arial, sans-serif" font-size="32" text-anchor="middle" fill="#333">Unit 5: Travel and Tourism</text>
    <text x="400" y="30" font-family="Arial, sans-serif" font-size="32" text-anchor="middle" fill="#333">ุงููุญุฏุฉ ุงูุฎุงูุณุฉ: ุงูุณูุฑ ูุงูุณูุงุญุฉ</text>

    <g id="overview-grid" transform="translate(50, 120)">

      <!-- Booking Flights -->
      <g transform="translate(0, 0)">
        <rect x="0" y="0" width="330" height="180" rx="10" fill="#e3f2fd" stroke="#90caf9"/>
        <text x="165" y="60" font-size="60" text-anchor="middle">โ๏ธ</text>
        <text x="165" y="120" font-size="22" text-anchor="middle" font-weight="bold">Booking Flights</text>
        <text x="165" y="145" font-size="20" text-anchor="middle">(ุญุฌุฒ ุงูุฑุญูุงุช ุงูุฌููุฉ)</text>
      </g>

      <!-- Booking Hotels -->
      <g transform="translate(370, 0)">
        <rect x="0" y="0" width="330" height="180" rx="10" fill="#e3f2fd" stroke="#90caf9"/>
        <text x="165" y="60" font-size="60" text-anchor="middle">๐จ</text>
        <text x="165" y="120" font-size="22" text-anchor="middle" font-weight="bold">Booking Hotels</text>
        <text x="165" y="145" font-size="20" text-anchor="middle">(ุญุฌุฒ ุงูููุงุฏู)</text>
      </g>

      <!-- Modes of Transport -->
      <g transform="translate(0, 200)">
        <rect x="0" y="0" width="330" height="180" rx="10" fill="#e3f2fd" stroke="#90caf9"/>
        <text x="165" y="60" font-size="60" text-anchor="middle">๐๐๐</text>
        <text x="165" y="120" font-size="22" text-anchor="middle" font-weight="bold">Modes of Transport</text>
        <text x="165" y="145" font-size="20" text-anchor="middle">(ูุณุงุฆู ุงูููู)</text>
      </g>

      <!-- Travel Vocabulary -->
      <g transform="translate(370, 200)">
        <rect x="0" y="0" width="330" height="180" rx="10" fill="#e3f2fd" stroke="#90caf9"/>
        <text x="165" y="60" font-size="60" text-anchor="middle">๐บ๏ธ passport</text>
        <text x="165" y="120" font-size="22" text-anchor="middle" font-weight="bold">Travel Vocabulary</text>
        <text x="165" y="145" font-size="20" text-anchor="middle">(ููุฑุฏุงุช ุงูุณูุฑ)</text>
      </g>

    </g>
  </g>
</svg>
