<svg width="800" height="500" viewBox="0 0 800 500" xmlns="http://www.w3.org/2000/svg" font-family="sans-serif">
    <defs>
        <style>
            .title { font-size: 24px; font-weight: bold; text-anchor: middle; fill: #2c3e50; }
            .card { fill: #ffffff; stroke: #bdc3c7; stroke-width: 1; rx: 10; }
            .card-title { font-size: 14px; font-weight: bold; text-anchor: middle; fill: #2980b9; }
            .icon { stroke: #3498db; stroke-width: 5; fill: none; stroke-linecap: round; stroke-linejoin: round; }
        </style>
    </defs>

    <rect width="800" height="500" fill="#f4f6f7"/>
    <text x="400" y="40" class="title">مصادر القيم</text>

    <!-- Religion -->
    <rect x="50" y="80" width="130" height="180" class="card"/>
    <text x="115" y="110" class="card-title">الدين</text>
    <g transform="translate(75, 130) scale(0.6)">
        <path d="M 50 10 L 20 40 H 80 Z" class="icon"/>
    </g>

    <!-- Family -->
    <rect x="200" y="80" width="130" height="180" class="card"/>
    <text x="265" y="110" class="card-title">الأسرة</text>
    <g transform="translate(225, 130) scale(0.6)">
        <circle cx="50" cy="30" r="10" class="icon"/>
        <path d="M 30 80 C 30 50, 70 50, 70 80 Z" class="icon"/>
    </g>

    <!-- Education -->
    <rect x="350" y="80" width="130" height="180" class="card"/>
    <text x="415" y="110" class="card-title">المؤسسات التعليمية</text>
    <g transform="translate(375, 130) scale(0.6)">
        <path d="M 20 20 H 80 V 80 H 20 Z" class="icon"/>
    </g>

    <!-- Friends -->
    <rect x="500" y="80" width="130" height="180" class="card"/>
    <text x="565" y="110" class="card-title">الأصدقاء</text>
    <g transform="translate(525, 130) scale(0.6)">
        <circle cx="35" cy="50" r="15" class="icon"/>
        <circle cx="65" cy="50" r="15" class="icon"/>
    </g>

    <!-- Media -->
    <rect x="650" y="80" width="130" height="180" class="card"/>
    <text x="715" y="110" class="card-title">وسائل الإعلام</text>
    <g transform="translate(675, 130) scale(0.6)">
        <rect x="20" y="20" width="60" height="40" class="icon"/>
        <path d="M 50 60 V 80" class="icon"/>
    </g>

</svg>
