<svg width="700" height="400" viewBox="0 0 700 400" xmlns="http://www.w3.org/2000/svg" font-family="sans-serif">
    <defs>
        <style>
            .title { font-size: 24px; font-weight: bold; text-anchor: middle; fill: #2c3e50; }
            .card { fill: #ffffff; stroke: #bdc3c7; stroke-width: 1; rx: 10; }
            .card-title { font-size: 18px; font-weight: bold; text-anchor: middle; fill: #2980b9; }
            .icon { stroke: #3498db; stroke-width: 5; fill: none; }
        </style>
    </defs>

    <rect width="700" height="400" fill="#f4f6f7"/>
    <text x="350" y="40" class="title">محاور رؤية السعودية 2030</text>

    <!-- Vibrant Society -->
    <rect x="50" y="100" width="180" height="200" class="card"/>
    <text x="140" y="140" class="card-title">مجتمع حيوي</text>
    <g transform="translate(90, 170) scale(0.7)">
        <path d="M 20 80 C 40 40, 60 40, 80 80" class="icon"/>
    </g>

    <!-- Thriving Economy -->
    <rect x="260" y="100" width="180" height="200" class="card"/>
    <text x="350" y="140" class="card-title">اقتصاد مزدهر</text>
    <g transform="translate(300, 170) scale(0.7)">
        <path d="M 20 70 L 40 50 L 60 70" class="icon"/>
        <path d="M 40 50 V 30" class="icon"/>
        <path d="M 60 70 L 80 50 L 80 30" class="icon"/>
    </g>

    <!-- Ambitious Nation -->
    <rect x="470" y="100" width="180" height="200" class="card"/>
    <text x="560" y="140" class="card-title">وطن طموح</text>
    <g transform="translate(510, 170) scale(0.7)">
        <path d="M 50 20 V 80" class="icon"/>
        <path d="M 30 40 L 50 20 L 70 40" class="icon"/>
    </g>

</svg>
