<svg width="600" height="400" viewBox="0 0 600 400" xmlns="http://www.w3.org/2000/svg" font-family="sans-serif">
    <defs>
        <style>
            .title { font-size: 24px; font-weight: bold; text-anchor: middle; fill: #2c3e50; }
            .card { fill: #ffffff; stroke: #bdc3c7; stroke-width: 1; rx: 10; }
            .card-title { font-size: 18px; font-weight: bold; text-anchor: middle; fill: #2980b9; }
            .icon { stroke: #3498db; stroke-width: 5; fill: none; }
        </style>
    </defs>

    <rect width="600" height="400" fill="#f4f6f7"/>
    <text x="300" y="40" class="title">الأخلاق المحمودة في العمل</text>

    <!-- Trustworthiness -->
    <rect x="50" y="100" width="150" height="200" class="card"/>
    <text x="125" y="140" class="card-title">الأمانة</text>
    <g transform="translate(85, 170) scale(0.7)">
        <path d="M 20 40 H 80 V 80 C 80 90, 20 90, 20 80 Z" class="icon"/>
        <path d="M 50 40 V 20" class="icon"/>
    </g>

    <!-- Justice -->
    <rect x="225" y="100" width="150" height="200" class="card"/>
    <text x="300" y="140" class="card-title">العدل</text>
    <g transform="translate(265, 170) scale(0.7)">
        <path d="M 20 50 H 80" class="icon"/>
        <path d="M 30 30 L 50 50 L 30 70" class="icon"/>
        <path d="M 70 30 L 50 50 L 70 70" class="icon"/>
    </g>

    <!-- Kindness -->
    <rect x="400" y="100" width="150" height="200" class="card"/>
    <text x="475" y="140" class="card-title">الرفق</text>
    <g transform="translate(440, 170) scale(0.7)">
        <path d="M 20 80 C 40 40, 60 40, 80 80" class="icon"/>
    </g>

</svg>
